HIERARCHY
ROOT simHips
{
  OFFSET -223.268 99.7686 374.689
  CHANNELS 6 Xposition Yposition Zposition Zrotation Xrotation Yrotation
  JOINT simSpine
  {
    OFFSET -0.000355721 21.3001 -0.016921
    CHANNELS 3 Zrotation Xrotation Yrotation
    JOINT simLeftArm
    {
      OFFSET 13.5181 21.3012 0
      CHANNELS 3 Zrotation Xrotation Yrotation
      JOINT simLeftForeArm
      {
        OFFSET 24.5783 0 0
        CHANNELS 3 Zrotation Xrotation Yrotation
        JOINT simLeftHand
        {
          OFFSET 24.5783 0 0
          CHANNELS 3 Zrotation Xrotation Yrotation
          End Site
          {
            OFFSET 7.32568 1.52588e-005 0.0169305
          }
        }
      }
    }
    JOINT simHead
    {
      OFFSET 0 27.4458 -0.00489235
      CHANNELS 3 Zrotation Xrotation Yrotation
      End Site
      {
        OFFSET 0 0 0
      }
    }
    JOINT simRightArm
    {
      OFFSET -13.5174 21.3012 0
      CHANNELS 3 Zrotation Xrotation Yrotation
      JOINT simRightForeArm
      {
        OFFSET -24.5783 0 0
        CHANNELS 3 Zrotation Xrotation Yrotation
        JOINT simRightHand
        {
          OFFSET -24.5783 0 0
          CHANNELS 3 Zrotation Xrotation Yrotation
          End Site
          {
            OFFSET -7.32568 1.52588e-005 0.0169305
          }
        }
      }
    }
  }
  JOINT simRightUpLeg
  {
    OFFSET -8.44614 -9.41038 0.835684
    CHANNELS 3 Zrotation Xrotation Yrotation
    JOINT simRightLeg
    {
      OFFSET 0 -40.9639 0
      CHANNELS 3 Zrotation Xrotation Yrotation
      JOINT simRightFoot
      {
        OFFSET 0 -40.9639 0
        CHANNELS 3 Zrotation Xrotation Yrotation
        End Site
        {
          OFFSET 0.50614 -9.67405 14.6709
        }
      }
    }
  }
  JOINT simLeftUpLeg
  {
    OFFSET 8.44614 -9.41038 0.835684
    CHANNELS 3 Zrotation Xrotation Yrotation
    JOINT simLeftLeg
    {
      OFFSET 0 -40.9639 0
      CHANNELS 3 Zrotation Xrotation Yrotation
      JOINT simLeftFoot
      {
        OFFSET 0 -40.9639 0
        CHANNELS 3 Zrotation Xrotation Yrotation
        End Site
        {
          OFFSET -0.50614 -9.67405 14.6709
        }
      }
    }
  }
}
MOTION
Frames:	14
Frame Time:	0.0333333
-151.594 88.037 16.4723 3.353 2.0151 -64.5049 -1.73105 1.4377 4.07069 -78.9943 -2.09273 20.8644 5.35297 -1.06408 -14.7448 -0.535757 -3.30046 1.93621 5.37485 21.9204 -8.62142 31.8938 59.5135 42.4072 -3.08062 -4.56141 40.3031 -1.6044 18.9139 4.9308 8.71197 6.2072 -22.8531 -8.87283 46.9298 17.8951 4.79927 4.6907 7.04844 -17.0256 -43.4183 -2.4425 8.6501 37.3242 -2.28179 1.8146 -1.2058 1.21219 
-156.84 88.2989 16.4181 2.29247 0.778495 -61.8389 -1.98468 1.70887 3.77449 -78.7624 0.0882652 17.6945 5.2479 -0.935256 -13.3943 -0.368467 -5.38666 2.02715 4.21579 22.7554 -8.58979 34.2347 60.2458 38.7149 -3.15794 -4.19615 37.9024 -3.05546 16.2021 6.13389 2.71054 0.242965 -23.7497 -9.18521 61.6392 21.7325 13.3403 16.294 6.24788 -17.9677 -41.3193 -3.55742 9.82531 42.8679 -3.74655 7.28939 -3.83358 0.670235 
-161.541 88.7669 16.3491 2.04425 -0.691962 -59.2032 -2.17548 1.84049 3.43776 -79.3688 3.30651 13.1542 4.99181 -0.814538 -12.4865 -1.01645 -6.98628 2.34639 2.14079 23.646 -7.36478 35.0835 60.0925 35.9719 -3.12063 -3.70611 35.0371 -3.6319 13.3864 6.70776 -2.23757 -7.47626 -23.4846 -11.8511 74.4098 19.8664 14.89 13.2449 3.66022 -18.3424 -38.7622 -2.62724 11.7131 45.837 -6.64735 7.10551 -7.12606 0.0507658 
-166.156 89.56 16.1794 2.36426 -1.71599 -56.379 -2.29897 1.78117 3.08767 -80.0904 7.73382 8.15954 4.92459 -0.88131 -13.6074 -1.92146 -7.06378 2.46063 0.287629 24.1476 -5.732 36.1476 58.9342 32.9618 -3.13001 -3.2482 31.9419 -4.1457 11.5173 6.72344 -6.70605 -16.0569 -24.0543 -26.1021 82.601 27.7237 11.4887 4.79346 1.63458 -17.8702 -36.1018 -1.90144 12.7341 47.2126 -9.41787 5.30234 -10.1274 -0.982974 
-170.856 90.4827 15.845 2.48458 -2.18799 -53.0031 -2.30967 1.7141 2.71535 -80.2954 13.6838 3.905 5.37915 -1.29569 -17.6182 -2.26094 -5.42504 2.05669 -0.664467 24.2064 -4.38388 39.5463 57.0554 27.7097 -3.27293 -2.89874 28.9382 -5.20117 10.6932 6.43762 -11.285 -23.6015 -25.695 -51.3699 84.4424 47.761 6.00687 -2.49792 -0.306154 -16.5425 -33.2407 -2.46051 12.3895 47.9932 -10.9635 4.02307 -12.2973 -2.08533 
-175.589 91.32 15.4036 1.82009 -1.97015 -49.0895 -2.09293 1.73205 2.31201 -79.3881 20.7129 0.749001 6.31978 -2.21061 -24.2661 -1.73075 -2.45942 1.08816 -0.377582 23.8958 -3.4651 45.0649 54.7752 20.6205 -3.39492 -2.62695 26.516 -6.18052 10.043 5.85557 -14.9739 -29.0255 -27.6392 -47.1883 81.3836 38.7423 1.74433 -6.86082 -3.10978 -13.8507 -30.593 -3.39574 11.6995 49.103 -12.4438 3.00602 -14.1082 -3.38047 
-180.307 91.7908 14.8275 0.753464 -1.32191 -44.7551 -1.73087 1.76749 1.85498 -77.4076 27.6721 -1.84498 7.15557 -3.56582 -32.756 -0.849236 1.58556 -0.204487 0.678283 23.3131 -3.08145 50.7064 52.1606 13.2126 -3.25385 -2.41156 25.2947 -5.79105 8.89416 4.83506 -17.1946 -32.1062 -28.8353 -35.4828 73.5473 22.9528 -0.316188 -8.65041 -5.85662 -10.1803 -29.1992 -3.67332 11.6218 51.2825 -14.968 2.46503 -15.436 -5.02842 
-185.187 91.8206 14.1714 -0.42015 -0.55628 -39.8425 -1.35574 1.77766 1.33076 -74.2193 33.9941 -4.72693 7.13211 -4.77763 -42.1625 -0.349977 6.39751 -1.45869 1.97424 22.7367 -3.51694 55.6384 49.1897 5.86428 -2.80351 -2.29101 25.7818 -3.68962 7.32766 3.64361 -18.0847 -32.5166 -28.4197 -27.8517 61.4612 13.2731 -0.614681 -6.68929 -6.98482 -6.1581 -29.3087 -3.20619 13.0634 54.7258 -19.1983 2.4955 -15.8933 -6.89299 
-189.887 91.7346 13.7764 -2.46435 0.623782 -34.4135 -0.846045 1.7687 0.85067 -68.2901 39.8382 -9.13947 6.21162 -5.14215 -51.4584 -0.400551 11.0426 -2.37446 4.0578 22.3912 -4.76095 60.7256 46.2844 -1.27703 -2.23483 -2.28737 27.8561 -1.01114 5.79325 2.85386 -17.5145 -29.5974 -24.3853 -20.7437 46.9738 8.94683 3.31717 -1.32834 -4.89566 -1.45828 -29.7499 -2.78751 16.0505 57.6798 -24.7335 2.73021 -16.1758 -8.66946 
-194.522 91.0359 13.4509 -4.11239 0.921151 -28.7758 -0.584563 1.76713 0.517177 -59.8655 44.9644 -16.3103 5.03212 -4.61201 -59.9957 -0.991617 14.7916 -2.72423 5.53485 22.3328 -6.66716 64.9537 44.2849 -8.0764 -1.78718 -2.37654 30.5887 0.826088 4.77217 2.69675 -18.7148 -24.0206 -13.9589 -11.6491 33.7201 7.46036 6.78261 4.52011 -1.08269 1.74442 -30.6048 -3.69263 20.3217 60.8809 -30.8622 2.91145 -16.6836 -9.95687 
-198.712 89.964 13.2248 -5.90175 0.624017 -23.2324 -0.411571 1.79972 0.390147 -49.0712 48.0119 -25.9302 4.06293 -3.5345 -67.771 -2.12823 17.5538 -2.43259 7.04676 22.5213 -9.10207 69.2102 43.6613 -13.9093 -1.48729 -2.46353 32.8377 1.32288 4.40721 2.89393 -20.2704 -18.7866 2.49796 -4.9037 26.1841 6.63657 7.40355 8.74737 0.831539 3.99595 -31.737 -6.61585 24.392 64.5649 -36.0292 3.36588 -17.053 -10.6059 
-203.806 87.4125 12.6005 -6.58096 -0.75002 -17.4916 -0.583257 1.93178 0.295027 -39.9123 48.1802 -35.4561 3.46704 -2.21144 -74.7072 -3.54253 19.3286 -1.81413 7.4281 22.8293 -12.2213 72.4672 44.4042 -19.0376 -1.21051 -2.40799 33.7799 1.0369 4.2215 3.07465 -22.1894 -14.4857 13.4925 -2.28705 27.0632 8.09359 27.4572 -0.528363 1.34227 4.99975 -33.9599 -11.5286 30.2498 70.6013 -42.8469 4.46113 -18.9113 -10.9782 
-208.579 84.803 11.8622 -7.81672 -1.55241 -11.7833 -0.550547 2.0678 0.199778 -35.2055 46.0917 -41.5713 3.24748 -1.03119 -80.0284 -4.42369 20.0944 -1.56327 8.47817 22.57 -15.2874 75.5991 46.4777 -21.5182 -1.09586 -2.22989 32.6787 0.897613 3.72631 3.10276 -20.9694 -11.8335 11.3233 -1.12349 32.0877 8.99958 34.7545 -14.3301 6.60932 6.17599 -37.6063 -16.7608 40.8901 76.472 -53.8658 5.52509 -18.8942 -11.0536 
-212.401 82.8835 11.1178 -9.43408 -1.47535 -6.85247 -0.294271 2.12086 0.132498 -37.0926 43.6561 -42.3007 3.23294 -0.449776 -82.6527 -3.61304 20.405 -2.52433 9.75473 21.6948 -17.0251 77.0906 49.297 -19.8265 -1.33629 -1.96965 28.751 1.21264 3.3064 2.93085 -17.9741 -11.7052 2.62302 -3.72958 38.3308 12.6296 35.3064 -25.0232 12.1768 7.08046 -41.7847 -19.7525 61.1945 80.4501 -71.9786 5.46501 -17.2913 -9.60308 
